<svg version="1.1" id="Layer_1" xmlns="http://www.w3.org/2000/svg" xmlns:xlink="http://www.w3.org/1999/xlink" x="0px" y="0px" viewBox="0 0 500 500" style="width: 155px;" xml:space="preserve" data-imageid="data-storage-3-17" imageName="Data Storage 3" class="illustrations_image">
<style type="text/css">
	.st0_data-storage-3-17{fill:#68E1FD;}
	.st1_data-storage-3-17{fill:#231F20;}
	.st2_data-storage-3-17{fill:#FFFFFF;}
	.st3_data-storage-3-17{fill:#D1D3D4;}
</style>
<g id="Data_Storage_data-storage-3-17">
	<path class="st0_data-storage-3-17 targetColor" d="M120.7,307.8v98.1c0,6.6,17.2,11.9,38.3,11.9s38.3-5.3,38.3-11.9v-98.1H120.7z" style="fill: rgb(104, 225, 253);"/>
	<path class="st1_data-storage-3-17" d="M159,418.5c-21.9,0-39-5.5-39-12.6v-98.1c0-0.4,0.3-0.7,0.7-0.7h0h76.6c0.4,0,0.7,0.3,0.7,0.7l0,0v98.1&#xA;&#9;&#9;C198,413,180.9,418.5,159,418.5z M121.4,308.5v97.4c0,5.4,15.1,11.2,37.6,11.2s37.6-5.8,37.6-11.2v-97.3L121.4,308.5z"/>
	<ellipse class="st2_data-storage-3-17" cx="159" cy="307.8" rx="38.3" ry="11.9"/>
	<path class="st1_data-storage-3-17" d="M159,320.5c-21.9,0-39-5.5-39-12.6s17.1-12.6,39-12.6s39,5.5,39,12.6S180.9,320.5,159,320.5z M159,296.6&#xA;&#9;&#9;c-22.5,0-37.6,5.8-37.6,11.2s15.1,11.2,37.6,11.2s37.6-5.8,37.6-11.2S181.5,296.6,159,296.6z"/>
	<path class="st1_data-storage-3-17" d="M159,342c-21.9,0-39-5.5-39-12.6c0-0.4,0.3-0.7,0.7-0.7c0.4,0,0.7,0.3,0.7,0.7c0,5.4,15.1,11.2,37.6,11.2&#xA;&#9;&#9;s37.6-5.8,37.6-11.2c0-0.4,0.3-0.7,0.7-0.7s0.7,0.3,0.7,0.7c0,0,0,0,0,0C198,336.5,180.9,342,159,342z"/>
	<path class="st1_data-storage-3-17" d="M159,367c-21.9,0-39-5.5-39-12.6c0-0.4,0.3-0.7,0.7-0.7c0.4,0,0.7,0.3,0.7,0.7l0,0c0,5.4,15.1,11.2,37.6,11.2&#xA;&#9;&#9;s37.6-5.8,37.6-11.2c0-0.4,0.3-0.7,0.7-0.7s0.7,0.3,0.7,0.7c0,0,0,0,0,0C198,361.4,180.9,367,159,367z"/>
	<path class="st1_data-storage-3-17" d="M159,391.9c-21.9,0-39-5.5-39-12.6c0-0.4,0.3-0.7,0.7-0.7c0.4,0,0.7,0.3,0.7,0.7c0,5.4,15.1,11.2,37.6,11.2&#xA;&#9;&#9;s37.6-5.8,37.6-11.2c0-0.4,0.3-0.7,0.7-0.7s0.7,0.3,0.7,0.7c0,0,0,0,0,0C198,386.3,180.9,391.9,159,391.9z"/>
	<path class="st0_data-storage-3-17 targetColor" d="M221.1,307.8v98.1c0,6.6,17.1,11.9,38.3,11.9s38.3-5.3,38.3-11.9v-98.1H221.1z" style="fill: rgb(104, 225, 253);"/>
	<path class="st1_data-storage-3-17" d="M259.4,418.5c-21.9,0-39-5.5-39-12.6v-98.1c0-0.4,0.3-0.7,0.7-0.7c0,0,0,0,0,0h76.6c0.4,0,0.7,0.3,0.7,0.7v0&#xA;&#9;&#9;v98.1C298.4,413,281.3,418.5,259.4,418.5z M221.8,308.5v97.4c0,5.4,15.1,11.2,37.6,11.2s37.6-5.8,37.6-11.2v-97.3L221.8,308.5z"/>
	<ellipse class="st2_data-storage-3-17" cx="259.4" cy="307.8" rx="38.3" ry="11.9"/>
	<path class="st1_data-storage-3-17" d="M259.4,320.5c-21.9,0-39-5.5-39-12.6s17.1-12.6,39-12.6s39,5.5,39,12.6S281.3,320.5,259.4,320.5z M259.4,296.6&#xA;&#9;&#9;c-22.5,0-37.6,5.8-37.6,11.2s15.1,11.2,37.6,11.2s37.6-5.8,37.6-11.2S281.9,296.6,259.4,296.6z"/>
	<path class="st1_data-storage-3-17" d="M259.4,342c-21.9,0-39-5.5-39-12.6c0-0.4,0.3-0.7,0.7-0.7c0.4,0,0.7,0.3,0.7,0.7c0,5.4,15.1,11.2,37.6,11.2&#xA;&#9;&#9;s37.6-5.8,37.6-11.2c0-0.4,0.3-0.7,0.7-0.7s0.7,0.3,0.7,0.7c0,0,0,0,0,0C298.4,336.5,281.3,342,259.4,342z"/>
	<path class="st1_data-storage-3-17" d="M259.4,367c-21.9,0-39-5.5-39-12.6c0-0.4,0.3-0.7,0.7-0.7s0.7,0.3,0.7,0.7c0,0,0,0,0,0&#xA;&#9;&#9;c0,5.4,15.1,11.2,37.6,11.2s37.6-5.8,37.6-11.2c0-0.4,0.3-0.7,0.7-0.7c0.4,0,0.7,0.3,0.7,0.7C298.4,361.4,281.3,367,259.4,367z"/>
	<path class="st1_data-storage-3-17" d="M259.4,391.9c-21.9,0-39-5.5-39-12.6c0-0.4,0.3-0.7,0.7-0.7s0.7,0.3,0.7,0.7c0,0,0,0,0,0&#xA;&#9;&#9;c0,5.4,15.1,11.2,37.6,11.2s37.6-5.8,37.6-11.2c0-0.4,0.3-0.7,0.7-0.7s0.7,0.3,0.7,0.7c0,0,0,0,0,0&#xA;&#9;&#9;C298.4,386.3,281.3,391.9,259.4,391.9z"/>
	<path class="st0_data-storage-3-17 targetColor" d="M321.4,307.8v98.1c0,6.6,17.1,11.9,38.3,11.9s38.3-5.3,38.3-11.9v-98.1H321.4z" style="fill: rgb(104, 225, 253);"/>
	<path class="st1_data-storage-3-17" d="M359.7,418.5c-21.9,0-39-5.5-39-12.6v-98.1c0-0.4,0.3-0.7,0.7-0.7h0H398c0.4,0,0.7,0.3,0.7,0.7v0v98.1&#xA;&#9;&#9;C398.8,413,381.6,418.5,359.7,418.5z M322.1,308.5v97.4c0,5.4,15.1,11.2,37.6,11.2s37.6-5.8,37.6-11.2v-97.3L322.1,308.5z"/>
	<ellipse class="st2_data-storage-3-17" cx="359.7" cy="307.8" rx="38.3" ry="11.9"/>
	<path class="st1_data-storage-3-17" d="M359.7,320.5c-21.9,0-39-5.5-39-12.6s17.1-12.6,39-12.6s39,5.5,39,12.6S381.6,320.5,359.7,320.5z M359.7,296.6&#xA;&#9;&#9;c-22.5,0-37.6,5.8-37.6,11.2s15.1,11.2,37.6,11.2s37.6-5.8,37.6-11.2S382.2,296.6,359.7,296.6z"/>
	<path class="st1_data-storage-3-17" d="M359.7,342c-21.9,0-39-5.5-39-12.6c0-0.4,0.3-0.7,0.7-0.7s0.7,0.3,0.7,0.7c0,0,0,0,0,0&#xA;&#9;&#9;c0,5.4,15.1,11.2,37.6,11.2s37.6-5.8,37.6-11.2c0-0.4,0.3-0.7,0.7-0.7s0.7,0.3,0.7,0.7c0,0,0,0,0,0&#xA;&#9;&#9;C398.8,336.5,381.6,342,359.7,342z"/>
	<path class="st1_data-storage-3-17" d="M359.7,367c-21.9,0-39-5.5-39-12.6c0-0.4,0.3-0.7,0.7-0.7c0.4,0,0.7,0.3,0.7,0.7c0,5.4,15.1,11.2,37.6,11.2&#xA;&#9;&#9;s37.6-5.8,37.6-11.2c0-0.4,0.3-0.7,0.7-0.7c0.4,0,0.7,0.3,0.7,0.7C398.8,361.4,381.6,367,359.7,367z"/>
	<path class="st1_data-storage-3-17" d="M359.7,391.9c-21.9,0-39-5.5-39-12.6c0-0.4,0.3-0.7,0.7-0.7s0.7,0.3,0.7,0.7c0,0,0,0,0,0&#xA;&#9;&#9;c0,5.4,15.1,11.2,37.6,11.2s37.6-5.8,37.6-11.2c0-0.4,0.3-0.7,0.7-0.7s0.7,0.3,0.7,0.7c0,0,0,0,0,0&#xA;&#9;&#9;C398.8,386.3,381.6,391.9,359.7,391.9z"/>
	<path class="st1_data-storage-3-17" d="M136.8,325.7c-3.8,0-3.8,5.9,0,5.9S140.6,325.7,136.8,325.7z"/>
	<path class="st1_data-storage-3-17" d="M237.1,345.5c-3.8,0-3.8,5.9,0,5.9S240.9,345.5,237.1,345.5z"/>
	<path class="st1_data-storage-3-17" d="M237.1,371.5c-3.8,0-3.8,5.9,0,5.9S240.9,371.5,237.1,371.5z"/>
	<path class="st1_data-storage-3-17" d="M337.2,325.7c-3.8,0-3.8,5.9,0,5.9S341,325.7,337.2,325.7z"/>
	<path class="st1_data-storage-3-17" d="M336.8,394.9c-3.8,0-3.8,5.9,0,5.9S340.6,394.9,336.8,394.9z"/>
</g>
<g id="Cloud_data-storage-3-17">
	<path class="st1_data-storage-3-17" d="M159,311.4c-1.2,0-2.1-0.9-2.1-2.1l0,0V270c0-1.2,0.9-2.1,2.1-2.1h0h32.3v-10.3c0-1.2,0.9-2.1,2.1-2.1&#xA;&#9;&#9;c1.2,0,2.1,0.9,2.1,2.1c0,0,0,0,0,0V270c0,1.2-0.9,2.1-2.1,2.1h0h-32.3v37.2C161.1,310.5,160.2,311.4,159,311.4z"/>
	<path class="st1_data-storage-3-17" d="M360.8,309.9c-1.2,0-2.1-0.9-2.1-2.1l0,0v-30.6h-32.3c-1.2,0-2.1-0.9-2.1-2.1l0,0v-18.9c0-1.2,0.9-2.1,2.1-2.1&#xA;&#9;&#9;s2.1,0.9,2.1,2.1V273h32.3c1.2,0,2.1,0.9,2.1,2.1l0,0v32.7C362.8,309,361.9,309.9,360.8,309.9z"/>
	<path class="st1_data-storage-3-17" d="M259.4,308.1c-1.2,0-2.1-0.9-2.1-2.1l0,0v-48.4c0-1.2,0.9-2.1,2.1-2.1s2.1,0.9,2.1,2.1V306&#xA;&#9;&#9;C261.5,307.1,260.5,308.1,259.4,308.1z"/>
	<path class="st2_data-storage-3-17" d="M205.2,138.5c-2.6-2.5-4.7-4.4-6.7-6.5c-9.9-9.9-24.2-12.7-36.4-7.3c-12.6,5.6-20,17.9-19.1,32.1&#xA;&#9;&#9;c0.2,3.3-0.8,4.3-3.8,5.1c-20.9,5.2-36.3,24.1-37.1,45.3c-1.1,29,20.8,51.9,49.9,51.9c66.9,0,133.9,0,200.8,0&#xA;&#9;&#9;c2.6,0,5.1-0.2,7.7-0.6c21.2-2.9,37.5-21.6,37.7-43.2c0.2-22.1-15.5-41.2-36.9-44.4c-4.9-0.7-10-0.7-15-1&#xA;&#9;&#9;c8.5-44.5-20.9-76.9-50.7-84.9c-16.2-4.3-32.1-3.7-47.5,2.9C225.4,97.5,211.9,115.1,205.2,138.5z"/>
	<path class="st1_data-storage-3-17" d="M230.1,259.8c-26.5,0-52.3,0-78.3,0c-27.5,0.5-50.2-21.4-50.6-48.9c0-1.2,0-2.5,0.1-3.7&#xA;&#9;&#9;c1-21.9,16.3-40.6,37.6-45.9c2.6-0.7,3.5-1.4,3.3-4.3c-1-14.4,6.5-27,19.5-32.8c12.5-5.6,27.1-2.7,37.2,7.4&#xA;&#9;&#9;c1.4,1.4,2.8,2.7,4.3,4.1l1.6,1.5c7.2-24.1,21.6-40.9,42.8-50c15.1-6.5,31.2-7.4,48-3c15.8,4.2,30.4,14.8,40.1,29.1&#xA;&#9;&#9;c7.7,11.3,15.9,30.2,11.2,55.9c1.3,0.1,2.6,0.1,3.9,0.2c3.4,0.1,6.9,0.4,10.3,0.8c21.6,3.2,37.8,22.6,37.5,45.2&#xA;&#9;&#9;c-0.2,22-16.7,40.9-38.3,43.9c-2.6,0.4-5.2,0.5-7.8,0.6L230.1,259.8z M174.8,122.7c-4.3,0-8.6,0.9-12.5,2.7&#xA;&#9;&#9;c-12.5,5.6-19.6,17.6-18.7,31.4c0.3,3.9-1.3,5-4.4,5.8c-20.7,5.2-35.6,23.3-36.6,44.6c-1.5,26.7,18.9,49.5,45.5,51.1&#xA;&#9;&#9;c1.2,0.1,2.4,0.1,3.6,0.1c63.5,0,126.2,0,200.8,0c2.5,0,5.1-0.2,7.6-0.5c20.9-2.9,36.9-21.1,37.1-42.5&#xA;&#9;&#9;c0.2-21.8-15.4-40.6-36.3-43.8c-3.4-0.4-6.8-0.7-10.1-0.8c-1.6-0.1-3.2-0.1-4.8-0.2c-0.2,0-0.4-0.1-0.5-0.3&#xA;&#9;&#9;c-0.1-0.2-0.2-0.4-0.1-0.6c4.9-25.6-3.2-44.4-10.9-55.6c-9.5-14-23.9-24.3-39.3-28.5c-16.5-4.4-32.3-3.4-47.1,2.9&#xA;&#9;&#9;c-21.4,9.2-35.3,25.6-42.4,50.2c-0.1,0.4-0.5,0.6-0.9,0.5c-0.1,0-0.2-0.1-0.3-0.2l-2.4-2.3c-1.6-1.5-2.9-2.8-4.3-4.2&#xA;&#9;&#9;C191.8,126.3,183.5,122.8,174.8,122.7z"/>
</g>
<g id="Icons_data-storage-3-17">
	<path class="st3_data-storage-3-17" d="M210,153.4h2.6c0.1,0,0.2,0.1,0.3,0.1c3.9,0.2,7.7,1.5,10.9,3.7c7.6,5.2,11,12.4,10.2,21.6&#xA;&#9;&#9;c-0.4,5.1-2.6,9.9-6.2,13.5c-4.9,5.2-11.9,7.8-19,6.9c-3.7-0.3-7.2-1.6-10.2-3.7c-5.5-3.6-9.1-9.3-10-15.8c-0.1-0.7-0.2-1.3-0.3-2&#xA;&#9;&#9;v-2.6c0-0.2,0.1-0.3,0.1-0.5c0.1-1,0.2-2,0.4-2.9c2-9.4,9.6-16.6,19.2-18C208.7,153.6,209.4,153.5,210,153.4z M228.1,189.1&#xA;&#9;&#9;c2.6-3.4,4.1-7.6,4.3-11.9h-9.1c-0.1,1.6-0.2,3.2-0.5,4.8s-0.5,3.2-0.8,4.7L228.1,189.1z M190.2,177.3c0.2,4.3,1.7,8.4,4.3,11.9&#xA;&#9;&#9;l6.1-2.4c-0.8-3.1-1.2-6.3-1.3-9.5H190.2z M232.3,175.4c0.2-3.4-2.3-10.1-4.3-11.8l-6,2.4c0.8,3.1,1.2,6.3,1.3,9.5L232.3,175.4z&#xA;&#9;&#9; M200.6,166l-6.1-2.4c-2.2,2.3-4.6,9-4.2,11.8h9.1C199.4,172.3,199.9,169.1,200.6,166z M212.2,185.5c1.4,0.1,2.7,0.2,4,0.3&#xA;&#9;&#9;s2.6,0.4,4,0.6c0-0.1,0.1-0.2,0.1-0.4c0.7-2.7,1.1-5.5,1.1-8.3c0-0.4-0.1-0.5-0.5-0.5h-8.3h-0.4L212.2,185.5z M201.2,177.3&#xA;&#9;&#9;c0,3.1,0.4,6.1,1.2,9.1l7.9-0.9v-8.2H201.2z M221.4,175.4c0-3-0.4-6.1-1.2-9l-7.9,0.9v8.1L221.4,175.4z M202.4,166.4&#xA;&#9;&#9;c-0.8,2.9-1.2,6-1.2,9h9.1v-8.1L202.4,166.4z M219.6,164.6c-0.6-2-1.5-3.9-2.7-5.6c-0.8-1.2-1.8-2.2-3.1-2.9&#xA;&#9;&#9;c-0.5-0.3-1-0.5-1.6-0.7v10C214.7,165.3,217.2,165,219.6,164.6L219.6,164.6z M212.2,187.4v9.9c1.1-0.2,2.1-0.7,2.9-1.5&#xA;&#9;&#9;c1.7-1.7,3-3.7,3.9-6c0.2-0.5,0.4-1.1,0.6-1.6C217.2,187.7,214.7,187.4,212.2,187.4L212.2,187.4z M210.3,197.4v-10&#xA;&#9;&#9;c-2.5,0.1-5,0.3-7.4,0.9c0.4,1.1,0.8,2.1,1.3,3.1c0.8,1.8,1.9,3.3,3.4,4.6C208.4,196.7,209.3,197.2,210.3,197.4L210.3,197.4z&#xA;&#9;&#9; M202.9,164.6c2.5,0.5,5,0.8,7.5,0.9v-10c-0.8,0.2-1.5,0.5-2.1,0.9c-1.5,1.1-2.7,2.5-3.5,4.2C204.1,161.7,203.5,163.1,202.9,164.6&#xA;&#9;&#9;L202.9,164.6z M226.8,190.8c-1.7-0.9-3.5-1.5-5.4-2c-1.7,4.4-2.2,5.3-4.5,8.1C220.7,195.7,224.1,193.6,226.8,190.8L226.8,190.8z&#xA;&#9;&#9; M205.6,156.1c-2.3,0.1-8.6,4-9.8,6.1l5.3,2c0.7-1.5,1.2-2.9,1.9-4.3C203.6,158.5,204.5,157.2,205.6,156.1z M195.8,190.7&#xA;&#9;&#9;c2.7,2.9,6.1,5,9.9,6c-2.1-2.3-3.6-5.1-4.5-8.1C199.3,189.1,197.5,189.8,195.8,190.7L195.8,190.7z M217.1,156.1&#xA;&#9;&#9;c1,1.1,1.9,2.4,2.6,3.8c0.7,1.4,1.2,2.8,1.9,4.2c1.8-0.5,3.6-1.1,5.3-2C224.2,159.2,220.8,157.1,217.1,156.1z"/>
	<path class="st3_data-storage-3-17" d="M361.4,239.9h-32.8c-3.8,0-6.9-3.1-6.9-6.9v-18.6c0-3.8,3.1-6.9,6.9-6.9h32.8c3.8,0,6.9,3.1,6.9,6.9V233&#xA;&#9;&#9;C368.3,236.8,365.2,239.9,361.4,239.9C361.4,239.9,361.4,239.9,361.4,239.9z M328.6,208.9c-3,0-5.5,2.5-5.5,5.5V233&#xA;&#9;&#9;c0,3,2.5,5.5,5.5,5.5h32.8c3,0,5.5-2.5,5.5-5.5v-18.6c0-3-2.5-5.5-5.5-5.5L328.6,208.9z"/>
	<path class="st3_data-storage-3-17" d="M337.5,233.9c-0.1,0-0.3,0-0.4-0.1c-0.2-0.1-0.3-0.4-0.3-0.6v-18.9c0-0.2,0.1-0.5,0.3-0.6&#xA;&#9;&#9;c0.2-0.1,0.5-0.1,0.7,0l19.5,9.5c0.2,0.1,0.4,0.4,0.4,0.6c0,0.3-0.2,0.5-0.4,0.6l-19.5,9.4C337.7,233.9,337.6,233.9,337.5,233.9z&#xA;&#9;&#9; M338.2,215.4V232l17.1-8.3L338.2,215.4z"/>
	<path class="st3_data-storage-3-17" d="M308.1,159.3H250c-0.4,0-0.7-0.3-0.7-0.7V118c0-0.4,0.3-0.7,0.7-0.7h58.1c0.4,0,0.7,0.3,0.7,0.7v0v40.6&#xA;&#9;&#9;C308.8,159,308.5,159.3,308.1,159.3C308.1,159.3,308.1,159.3,308.1,159.3z M250.7,157.9h56.7v-39.2h-56.7V157.9z"/>
	<path class="st3_data-storage-3-17" d="M250,159.3c-0.2,0-0.3,0-0.4-0.1c-0.3-0.2-0.4-0.7-0.2-1c0,0,0,0,0,0l22.9-30.9c0.1-0.2,0.3-0.3,0.5-0.3&#xA;&#9;&#9;c0.2,0,0.4,0.1,0.5,0.2l18,21.3c0.3,0.3,0.2,0.7-0.1,1c-0.3,0.3-0.7,0.2-1-0.1L273,128.8L250.6,159&#xA;&#9;&#9;C250.4,159.2,250.2,159.3,250,159.3z"/>
	<path class="st3_data-storage-3-17" d="M286,143.9c-0.1,0-0.3,0-0.4-0.1c-0.3-0.2-0.4-0.7-0.2-1c0,0,0,0,0,0l9.3-13.4c0.1-0.2,0.3-0.3,0.5-0.3&#xA;&#9;&#9;c0.2,0,0.4,0.1,0.6,0.2l12.9,13.4c0.3,0.3,0.3,0.7,0,1s-0.7,0.3-1,0l-12.3-12.8l-8.8,12.7C286.4,143.8,286.2,143.9,286,143.9z"/>
	<path class="st3_data-storage-3-17" d="M287,130.4c-2.4,0-4.3-1.9-4.3-4.3c0-2.4,1.9-4.3,4.3-4.3c2.4,0,4.3,1.9,4.3,4.3S289.4,130.4,287,130.4&#xA;&#9;&#9;L287,130.4z M287,123.2c-1.6,0-2.9,1.3-2.9,2.9s1.3,2.9,2.9,2.9c1.6,0,2.9-1.3,2.9-2.9S288.6,123.2,287,123.2&#xA;&#9;&#9;C287,123.2,287,123.2,287,123.2z"/>
	<path class="st3_data-storage-3-17" d="M186.3,239.4h-54.5c-0.4,0-0.7-0.3-0.7-0.7v-30.1c0-0.4,0.3-0.7,0.7-0.7h54.5c0.4,0,0.7,0.3,0.7,0.7v30.1&#xA;&#9;&#9;C187,239.1,186.7,239.4,186.3,239.4z M132.5,238h53.1v-28.6h-53.1V238z"/>
	<path class="st3_data-storage-3-17" d="M159,228.1c-0.1,0-0.3,0-0.4-0.1l-27.3-18.8c-0.3-0.2-0.4-0.6-0.2-1c0,0,0,0,0,0c0.2-0.3,0.7-0.4,1-0.2&#xA;&#9;&#9;c0,0,0,0,0,0l26.9,18.5l26.9-18.5c0.3-0.2,0.8-0.2,1,0.2c0,0,0,0,0,0c0.2,0.3,0.2,0.7-0.1,1c0,0,0,0,0,0L159.4,228&#xA;&#9;&#9;C159.3,228.1,159.2,228.1,159,228.1z"/>
	<path class="st3_data-storage-3-17" d="M131.8,239.4c-0.4,0-0.7-0.3-0.7-0.7c0-0.2,0.1-0.5,0.3-0.6l21.9-15c0.3-0.2,0.8-0.1,1,0.3&#xA;&#9;&#9;c0.2,0.3,0.1,0.7-0.2,0.9l-21.9,15C132,239.4,131.9,239.4,131.8,239.4z"/>
	<path class="st3_data-storage-3-17" d="M186.3,239.4c-0.1,0-0.3,0-0.4-0.1l-21.8-15c-0.3-0.2-0.4-0.6-0.2-1c0,0,0,0,0,0c0.2-0.3,0.7-0.4,1-0.2&#xA;&#9;&#9;c0,0,0,0,0,0l21.8,15c0.3,0.2,0.4,0.7,0.2,1C186.8,239.3,186.6,239.4,186.3,239.4L186.3,239.4z"/>
	<path class="st3_data-storage-3-17" d="M238.5,241.1h-0.3c-2.2-0.1-4.3-1-5.8-2.6c-1.5-1.7-2.3-3.9-2.2-6.1c0.2-4.6,4.2-8.1,8.8-7.9&#xA;&#9;&#9;c0.8,0,1.5,0.2,2.2,0.4l0.4,0.2c0-0.1,0-0.2,0-0.3v-19.1c-0.2-0.9,0.3-1.7,1.2-1.9c6.3-2.1,12.7-4.2,19-6.3l6.5-2.2&#xA;&#9;&#9;c0.1,0,0.3-0.1,0.4-0.1h0.2c0.2,0,0.4,0,0.5,0.1c0.2,0.1,0.3,0.3,0.3,0.5v0.2c0,0.2,0,0.4,0,0.6v8.1c0,8.1,0,16.1,0,24.2&#xA;&#9;&#9;c0,2.8-1.3,5.4-3.6,7c-2.2,1.6-5,1.9-7.5,1.1c-2.1-0.7-3.9-2.3-4.8-4.4c-1-2-1.1-4.3-0.3-6.4c1.6-4.3,6.4-6.5,10.7-4.9&#xA;&#9;&#9;c0.1,0,0.1,0.1,0.2,0.1v-19.3l-17.7,5.9V220c0,4.3,0,8.6,0,12.9c0,2.2-0.9,4.3-2.5,5.9C242.7,240.2,240.6,241.1,238.5,241.1z&#xA;&#9;&#9; M238.5,225.8c-1.4,0-2.7,0.4-3.9,1.2c-1.8,1.2-2.9,3.2-3,5.4c-0.1,1.9,0.6,3.7,1.9,5.1c1.2,1.3,2.9,2.1,4.8,2.2&#xA;&#9;&#9;c1.9,0.1,3.8-0.6,5.1-1.9c1.3-1.3,2.1-3,2.1-4.9c0-4.3,0-8.6,0-12.9v-12.7c0-0.3,0.2-0.6,0.5-0.7l19.1-6.4c0.4-0.1,0.8,0.1,0.9,0.5&#xA;&#9;&#9;c0,0.1,0,0.1,0,0.2v21.2c0,0.4-0.3,0.7-0.7,0.7c-0.1,0-0.2,0-0.3-0.1l-0.9-0.4c-3.6-1.3-7.6,0.5-8.9,4.1c-1.3,3.6,0.5,7.6,4.1,8.9&#xA;&#9;&#9;l0,0c2.1,0.8,4.4,0.4,6.2-0.9c1.9-1.3,3-3.5,3-5.9c0-8.1,0-16.2,0-24.2v-7.9l-6.2,2.1c-6.3,2.1-12.7,4.2-19,6.3&#xA;&#9;&#9;c-0.2,0.1-0.2,0.1-0.2,0.5v19.2c0,0.3,0,0.6,0,0.9v0.4c0,0.2-0.1,0.4-0.3,0.6c-0.2,0.1-0.4,0.1-0.6,0.1l-0.5-0.2&#xA;&#9;&#9;c-0.3-0.1-0.5-0.2-0.8-0.3C240,225.9,239.2,225.8,238.5,225.8L238.5,225.8z"/>
	<path class="st3_data-storage-3-17" d="M292.1,201c-0.2,0-0.4,0-0.5-0.1c-0.8-0.2-1.4-1-1.4-1.8v-5.4c-2.4-1.1-3.9-3.5-3.9-6.2v-10.7&#xA;&#9;&#9;c0-3.8,3.1-6.9,6.9-6.9l0,0h24.4c3.8,0,6.9,3.1,6.9,6.8v0v10.7c0,3.8-3.1,6.9-6.9,6.9l0,0h-20.1l-3.7,5.8&#xA;&#9;&#9;C293.3,200.7,292.7,201,292.1,201z M293.1,171.4c-3,0-5.5,2.4-5.5,5.4c0,0,0,0,0,0v10.7c0,2.2,1.4,4.3,3.5,5.1&#xA;&#9;&#9;c0.3,0.1,0.4,0.4,0.4,0.7v5.9c0,0.2,0.1,0.4,0.4,0.5c0.2,0.1,0.4,0,0.6-0.2l3.9-6.1c0.1-0.2,0.4-0.3,0.6-0.3h20.5&#xA;&#9;&#9;c3,0,5.4-2.4,5.5-5.4v-10.7c0-3-2.4-5.4-5.5-5.4l0,0H293.1z"/>
	<path class="st3_data-storage-3-17" d="M168.6,173.5h-28.9c-0.4,0-0.7-0.3-0.7-0.7c0-0.4,0.3-0.7,0.7-0.7h28.9c0.4,0,0.7,0.3,0.7,0.7&#xA;&#9;&#9;C169.3,173.2,169,173.5,168.6,173.5z"/>
	<path class="st3_data-storage-3-17" d="M168.6,181.3h-28.9c-0.4,0-0.7-0.3-0.7-0.7c0-0.4,0.3-0.7,0.7-0.7h28.9c0.4,0,0.7,0.3,0.7,0.7&#xA;&#9;&#9;C169.3,181,169,181.3,168.6,181.3C168.6,181.3,168.6,181.3,168.6,181.3z"/>
	<path class="st3_data-storage-3-17" d="M157,189.1h-17.3c-0.4,0-0.7-0.3-0.7-0.7c0-0.4,0.3-0.7,0.7-0.7H157c0.4,0,0.7,0.3,0.7,0.7&#xA;&#9;&#9;C157.7,188.8,157.4,189.1,157,189.1C157,189.1,157,189.1,157,189.1z"/>
</g>
</svg>