<svg version="1.1" id="Layer_1" xmlns="http://www.w3.org/2000/svg" xmlns:xlink="http://www.w3.org/1999/xlink" x="0px" y="0px" viewBox="0 0 500 500" style="width: 155px;" xml:space="preserve" data-imageid="phone-maintenance-21" imageName="Phone Maintenance" class="illustrations_image">
<style type="text/css">
	.st0_phone-maintenance-21{fill:#70CC40;}
	.st1_phone-maintenance-21{fill:#093F68;}
	.st2_phone-maintenance-21{fill:#F56132;}
	.st3_phone-maintenance-21{fill:#68E1FD;}
	.st4_phone-maintenance-21{fill:#FFFFFF;}
	.st5_phone-maintenance-21{fill:#DFEAEF;}
	.st6_phone-maintenance-21{fill:#FFBC0E;}
</style>
<g id="gears_phone-maintenance-21">
	<path class="st0_phone-maintenance-21" d="M374.5,326.5c-1.6-0.8-3.2-1.5-4.8-2.2c-0.5-0.2-0.8-0.6-0.8-1.1c-0.1-1.5-0.4-2.9-0.6-4.4&#xA;&#9;&#9;c-0.1-0.4,0-0.8,0.3-1c1.4-1.1,2.8-2.2,4-3.4c1.5-1.4,2-3.6,1-5.4c-1.1-2.1-2.3-4.1-3.5-6.1c-1.2-2.3-3.9-3.2-6.2-2.2&#xA;&#9;&#9;c-1.5,0.6-3,1.1-4.4,1.7c-0.3,0.2-0.7,0.1-1-0.1c-1.2-1-2.5-1.9-3.8-2.9c-0.3-0.2-0.5-0.6-0.4-0.9c0.1-1.6,0.3-3.2,0.4-4.8&#xA;&#9;&#9;c0.3-2.3-1.2-4.4-3.4-5.1c-2.3-0.7-4.7-1.3-7-1.8c-2.1-0.5-4.2,0.5-5.2,2.4c-0.8,1.6-1.5,3.3-2.3,4.9c-0.1,0.4-0.5,0.6-0.9,0.6&#xA;&#9;&#9;c-1.5,0.2-3,0.4-4.5,0.7c-0.3,0.1-0.7,0-0.9-0.3c-1.1-1.4-2.2-2.7-3.4-4c-1.4-1.6-3.6-2-5.5-1c-2.2,1.2-4.4,2.4-6.5,3.8&#xA;&#9;&#9;c-2,1.2-2.8,3.8-1.9,5.9c0.6,1.5,1.2,3.1,1.8,4.6c0.1,0.2,0,0.5-0.1,0.7c-1,1.3-1.9,2.6-2.9,3.9c-0.2,0.2-0.4,0.3-0.7,0.3&#xA;&#9;&#9;c-1.6-0.1-3.2-0.3-4.8-0.4c-2.3-0.3-4.5,1-5.2,3.2c-0.7,2.4-1.3,4.9-1.9,7.4c-0.4,2,0.5,4.1,2.3,5c1.6,0.8,3.4,1.6,5,2.3&#xA;&#9;&#9;c0.3,0.1,0.6,0.4,0.6,0.8c0.2,1.5,0.4,3.1,0.7,4.6c0.1,0.3,0,0.7-0.3,0.9c-1.2,1-2.5,2-3.7,3.1c-1.9,1.5-2.4,4.3-1.1,6.3&#xA;&#9;&#9;c1.1,1.9,2.2,3.8,3.3,5.6c1.2,2.2,3.9,3.2,6.2,2.1c1.5-0.6,3-1.1,4.5-1.7c0.3-0.1,0.6-0.1,0.9,0.1c1.2,0.9,2.3,1.8,3.5,2.6&#xA;&#9;&#9;c0.4,0.2,0.6,0.7,0.5,1.1c-0.2,1.6-0.3,3.1-0.4,4.7c-0.3,2.2,1.1,4.3,3.2,5c2.5,0.7,4.9,1.4,7.4,1.9c2,0.4,4.1-0.6,5-2.4&#xA;&#9;&#9;c0.8-1.6,1.5-3.2,2.2-4.8c0.1-0.4,0.5-0.7,0.9-0.7c1.5-0.2,3-0.4,4.5-0.6c0.3-0.1,0.7,0,0.9,0.3c1,1.2,2.1,2.5,3.1,3.7&#xA;&#9;&#9;c0.7,0.9,1.7,1.5,2.8,1.7c1,0.3,2.1,0.1,3-0.4c2-1.1,4-2.3,6-3.5c2.3-1.2,3.3-4,2.2-6.3c-0.6-1.5-1.1-2.9-1.7-4.4&#xA;&#9;&#9;c-0.2-0.3-0.1-0.7,0.1-0.9c1-1.2,1.9-2.5,2.8-3.7c0.2-0.3,0.6-0.5,1-0.4c1.6,0.2,3.2,0.3,4.8,0.4c2.3,0.3,4.5-1.1,5.1-3.3&#xA;&#9;&#9;c0.7-2.4,1.3-4.8,1.9-7.2C377.2,329.6,376.3,327.5,374.5,326.5z M354.5,329.7c-2.3,9-11.5,14.4-20.5,12c-9-2.3-14.4-11.5-12-20.5&#xA;&#9;&#9;c2.3-9,11.5-14.4,20.5-12C351.4,311.5,356.8,320.7,354.5,329.7L354.5,329.7z"/>
	<path class="st1_phone-maintenance-21" d="M338.2,344.3c-1.6,0-3.2-0.2-4.8-0.6l0,0c-4.9-1.3-9.1-4.5-11.6-8.9c-2.5-4.3-3.2-9.3-1.9-14.1&#xA;&#9;&#9;c2.7-10,12.9-15.9,22.9-13.4c10,2.7,16,13,13.3,23C354,338.5,346.7,344.2,338.2,344.3L338.2,344.3z M334.5,339.8&#xA;&#9;&#9;c3.8,1,7.8,0.5,11.1-1.5c3.4-2,5.9-5.3,7-9.1c2-7.9-2.7-16-10.6-18c-7.9-2.1-15.9,2.7-18,10.5c0,0,0,0,0,0.1&#xA;&#9;&#9;c-1,3.7-0.5,7.7,1.5,11.1C327.3,336.2,330.6,338.8,334.5,339.8L334.5,339.8z"/>
	<path class="st1_phone-maintenance-21" d="M333.1,366.2c-0.5,0-0.9-0.1-1.4-0.2c-2.7-0.6-5.2-1.2-7.5-2c-3-1-5-3.9-4.6-7.1c0.1-1.4,0.2-2.9,0.4-4.3&#xA;&#9;&#9;c-0.9-0.6-1.8-1.3-2.7-2c-1.3,0.5-2.6,1-3.9,1.5c-3.2,1.4-7,0.1-8.6-3c-1.1-1.8-2.2-3.6-3.3-5.6c-1.8-2.9-1.2-6.7,1.5-8.8&#xA;&#9;&#9;c1.1-1,2.2-1.9,3.3-2.8c-0.2-1.3-0.4-2.4-0.5-3.5l-0.6-0.3c-1.3-0.6-2.7-1.2-4-1.9c-2.6-1.4-4-4.3-3.4-7.2c0.6-2.7,1.2-5.1,1.9-7.5&#xA;&#9;&#9;c1-3.1,4.1-5.1,7.3-4.7c1.4,0.1,2.7,0.3,4.1,0.4c0.7-0.9,1.4-1.9,2.1-2.9c-0.2-0.6-0.5-1.3-0.7-1.9s-0.5-1.4-0.8-2.1&#xA;&#9;&#9;c-1.3-3-0.2-6.6,2.6-8.3c2-1.3,4.2-2.6,6.6-3.9c2.7-1.4,5.9-0.8,7.9,1.5c1.1,1.2,2.1,2.4,3,3.6c1.3-0.2,2.4-0.4,3.5-0.5l0.2-0.5&#xA;&#9;&#9;c0.6-1.3,1.2-2.7,1.9-4.1c1.4-2.7,4.4-4.1,7.4-3.4c2.4,0.6,4.8,1.2,7.1,1.8c3.1,0.9,5.2,3.9,4.8,7.2c-0.1,1.4-0.2,2.8-0.4,4.2&#xA;&#9;&#9;c1,0.7,2,1.5,3,2.3c1.3-0.5,2.6-1,3.9-1.5c3.2-1.4,7,0,8.6,3.1l0.9,1.5c0.9,1.5,1.8,3.1,2.6,4.7c1.4,2.6,0.8,5.8-1.4,7.8&#xA;&#9;&#9;c-1.2,1.1-2.4,2.1-3.6,3.1l-0.1,0.1c0.2,1.3,0.4,2.5,0.5,3.5c1.6,0.7,3,1.3,4.5,2c2.7,1.4,4.1,4.3,3.4,7.2l0,0&#xA;&#9;&#9;c-0.6,2.6-1.2,5-1.9,7.3c-0.9,3.1-4,5.1-7.2,4.8c-1.4-0.1-2.8-0.2-4.3-0.4c-0.7,0.9-1.4,1.9-2.1,2.9c0.5,1.3,1,2.6,1.5,3.9&#xA;&#9;&#9;c1.4,3.3,0.1,7.1-3.1,8.8l-1.1,0.6c-1.6,1-3.3,1.9-4.9,2.9c-1.4,0.8-2.9,1-4.4,0.6c-1.5-0.3-2.9-1.2-3.9-2.4l-1.2-1.5&#xA;&#9;&#9;c-0.5-0.6-1-1.1-1.5-1.7c-1.3,0.2-2.5,0.4-3.5,0.5l-0.2,0.4c-0.6,1.3-1.2,2.7-1.9,4.1C337.8,364.8,335.6,366.2,333.1,366.2z&#xA;&#9;&#9; M317.4,346.5c0.6,0,1.3,0.2,1.8,0.6c1.3,1,2.3,1.8,3.4,2.6c1,0.6,1.5,1.8,1.3,3c-0.2,1.6-0.3,3.1-0.4,4.6c-0.2,1.3,0.5,2.6,1.8,3&#xA;&#9;&#9;c2.3,0.7,4.7,1.3,7.3,1.9c1.1,0.2,2.2-0.3,2.8-1.3c0.6-1.3,1.2-2.6,1.8-3.9l0.4-0.8c0.4-1.1,1.4-1.8,2.5-2c1.3-0.1,2.7-0.4,4.4-0.6&#xA;&#9;&#9;c1-0.2,2.1,0.2,2.7,1c0.6,0.7,1.2,1.5,1.8,2.2l1.3,1.5c0.4,0.6,1.1,0.9,1.8,1.1c0.5,0.1,1.1,0.1,1.6-0.2c1.6-0.9,3.2-1.9,4.8-2.8&#xA;&#9;&#9;l1.1-0.6c1.4-0.6,2.1-2.3,1.5-3.8c0-0.1,0-0.1-0.1-0.2c-0.5-1.5-1.1-2.9-1.7-4.4c-0.4-1-0.3-2.1,0.4-2.9c1-1.3,1.9-2.5,2.8-3.6&#xA;&#9;&#9;c0.6-0.9,1.7-1.4,2.8-1.2c1.6,0.2,3.1,0.3,4.7,0.4c1.3,0.2,2.6-0.6,3-1.9c0.6-2.2,1.2-4.6,1.8-7.1l0,0c0.2-1.1-0.3-2.2-1.3-2.8&#xA;&#9;&#9;c-1.5-0.7-3-1.4-4.6-2.1c-1.1-0.4-1.9-1.5-2-2.7c-0.1-1.2-0.3-2.6-0.6-4.2c-0.2-1.1,0.2-2.2,1-2.9l0.5-0.4c1.2-1,2.3-1.9,3.4-2.9&#xA;&#9;&#9;c0.9-0.8,1.1-2,0.6-3c-0.8-1.5-1.7-3-2.5-4.5l-0.9-1.5c-0.7-1.4-2.4-2-3.8-1.4c0,0,0,0,0,0c-1.5,0.5-2.9,1.1-4.4,1.7&#xA;&#9;&#9;c-1,0.4-2.2,0.3-3-0.4c-1.2-1-2.5-1.9-3.7-2.8c-0.9-0.6-1.4-1.7-1.3-2.8c0.1-1.6,0.3-3.1,0.4-4.7c0.2-1.3-0.6-2.6-1.9-3&#xA;&#9;&#9;c-2.3-0.6-4.6-1.2-7-1.8c-1.2-0.3-2.4,0.3-2.9,1.4c-0.6,1.2-1.2,2.5-1.8,3.9l-0.4,1c-0.4,1-1.3,1.7-2.4,1.8&#xA;&#9;&#9;c-1.3,0.2-2.8,0.4-4.4,0.7c-1.1,0.2-2.1-0.1-2.8-1l-0.1-0.2c-1-1.3-2.1-2.6-3.2-3.8c-0.8-0.9-2-1.1-3.1-0.6&#xA;&#9;&#9;c-2.3,1.2-4.4,2.5-6.4,3.7c-1.2,0.7-1.7,2.3-1.1,3.5l0.8,2.1c0.3,0.9,0.7,1.7,1,2.6c0.3,0.9,0.2,1.8-0.4,2.6c-1,1.4-2,2.7-3,4&#xA;&#9;&#9;c-0.6,0.7-1.5,1.1-2.4,1.1c-1.6-0.1-3.2-0.2-4.8-0.4c-1.3-0.2-2.6,0.5-3.1,1.8c-0.7,2.3-1.3,4.7-1.9,7.2c-0.2,1.1,0.3,2.2,1.3,2.7&#xA;&#9;&#9;c1.2,0.6,2.5,1.2,3.8,1.8l1.1,0.5c1,0.4,1.6,1.3,1.8,2.4c0.2,1.4,0.4,2.8,0.7,4.5c0.2,1-0.2,2.1-1,2.8c-1.2,1-2.5,2-3.7,3.1&#xA;&#9;&#9;c-1.2,0.9-1.5,2.6-0.6,3.8c1.1,2,2.2,3.8,3.3,5.6c0.7,1.4,2.4,2,3.8,1.3c0,0,0,0,0,0c1.5-0.6,3-1.1,4.5-1.7&#xA;&#9;&#9;C316.6,346.6,317,346.5,317.4,346.5z M344.1,357.1L344.1,357.1z M363,346L363,346z M311.5,307.4L311.5,307.4z"/>
	<path class="st2_phone-maintenance-21" d="M393.9,199.2c-0.1-3.6-2.7-6.6-6.1-7.4c-3-0.6-6-1.1-9-1.6c-0.8-0.1-1.6-0.7-1.8-1.5c-0.9-2.4-1.9-4.7-2.9-7.1&#xA;&#9;&#9;c-0.3-0.6-0.3-1.3,0.1-1.8c1.8-2.5,3.7-5,5.3-7.5c2-3,1.7-6.9-0.7-9.6c-2.7-3-5.7-5.9-8.6-8.7c-3-3.3-8-3.7-11.5-1&#xA;&#9;&#9;c-2.3,1.6-4.5,3.2-6.7,4.8c-0.5,0.4-1.2,0.5-1.8,0.2c-2.5-1.1-5.1-2.2-7.7-3.2c-0.6-0.2-1.1-0.7-1.2-1.4c-0.4-2.7-0.9-5.5-1.4-8.2&#xA;&#9;&#9;c-0.6-4-3.9-7-7.9-7.1c-4.2-0.1-8.5-0.1-12.7,0c-3.7,0.1-6.9,2.7-7.7,6.3c-0.7,3.1-1.1,6.2-1.7,9.3c-0.1,0.7-0.5,1.2-1.1,1.4&#xA;&#9;&#9;c-2.5,1-4.9,2-7.4,3.1c-0.5,0.3-1.2,0.3-1.7-0.1c-2.4-1.8-4.9-3.6-7.4-5.3c-3-2-7-1.8-9.7,0.6c-3.2,3-6.4,6-9.3,9.2&#xA;&#9;&#9;s-3,7.2-0.5,10.8c1.6,2.4,3.4,4.7,5,7.1c0.2,0.4,0.3,0.8,0.1,1.3c-1,2.7-2.1,5.3-3.2,7.9c-0.2,0.4-0.6,0.7-1,0.8&#xA;&#9;&#9;c-2.7,0.5-5.5,1-8.2,1.4c-4.1,0.7-7.2,3.8-7.4,7.7c-0.1,4.4-0.1,8.8,0,13.2c0.2,3.5,2.6,6.5,6.1,7.4c3.1,0.7,6.3,1.2,9.5,1.7&#xA;&#9;&#9;c0.6,0,1.2,0.5,1.3,1.1c1,2.5,2,5,3.1,7.5c0.3,0.5,0.2,1.2-0.1,1.6c-1.7,2.3-3.3,4.5-4.9,6.9c-2.6,3.4-2.1,8.2,1,11.1&#xA;&#9;&#9;c2.7,2.7,5.3,5.3,8,8c3.4,3.3,7.5,3.6,11.4,0.9c2.3-1.6,4.6-3.2,6.9-4.9c0.4-0.4,1-0.4,1.5-0.1c2.4,1,4.7,2,7.1,2.9&#xA;&#9;&#9;c0.8,0.2,1.3,0.9,1.3,1.7c0.4,2.7,0.9,5.4,1.3,8.1c0.5,3.9,3.7,6.8,7.6,7.1c4.4,0.1,8.9,0.1,13.3,0c3.6-0.2,6.6-2.7,7.4-6.2&#xA;&#9;&#9;c0.6-3,1.1-6,1.6-9.1c0-0.7,0.6-1.4,1.3-1.6c2.5-1,4.9-2,7.4-3.1c0.5-0.3,1.2-0.2,1.6,0.2c2.3,1.7,4.6,3.3,6.9,4.9&#xA;&#9;&#9;c1.6,1.2,3.6,1.8,5.5,1.7c1.8,0,3.6-0.7,4.9-2c2.9-2.7,5.7-5.6,8.5-8.4c3.5-3.4,3.8-7.6,1-11.6c-1.6-2.2-3.2-4.5-4.8-6.7&#xA;&#9;&#9;c-0.4-0.4-0.4-1.1-0.2-1.6c1.1-2.5,2.1-5,3.1-7.5c0.2-0.6,0.8-1.1,1.4-1.1c2.7-0.4,5.5-0.9,8.2-1.3c4-0.5,7-3.8,7.2-7.9&#xA;&#9;&#9;C394,207.9,394,203.6,393.9,199.2z M326.1,235.1c-16.2,0-29.2-13.2-29.2-29.3s13.2-29.2,29.3-29.2c16.1,0,29.2,13.2,29.2,29.3&#xA;&#9;&#9;C355.4,222,342.3,235.1,326.1,235.1z"/>
	<path class="st1_phone-maintenance-21" d="M326.3,237.1h-0.2c-8.4,0-16.4-3.5-22.3-9.5c-5.8-5.8-9-13.7-8.9-21.9c0.2-17.2,14.1-31,31.2-31.1l0,0&#xA;&#9;&#9;c17.3,0,31.2,14,31.3,31.2c0,8.4-3.4,16.5-9.4,22.3C342.3,233.8,334.5,237.1,326.3,237.1z M326.1,233.1c7.2,0.1,14.1-2.7,19.1-7.8&#xA;&#9;&#9;c5.2-5.1,8.2-12.1,8.2-19.4c0-15.1-12.2-27.3-27.3-27.3l0,0c-15-0.1-27.2,12.1-27.2,27c0,0.1,0,0.1,0,0.2c-0.1,7.1,2.7,14,7.7,19.1&#xA;&#9;&#9;C311.8,230,318.8,233,326.1,233.1L326.1,233.1z"/>
	<path class="st1_phone-maintenance-21" d="M326,275.7c-2.3,0-4.5,0-6.6-0.1c-4.8-0.3-8.8-4-9.5-8.8c-0.5-2.7-0.9-5.5-1.3-8.2c0,0,0-0.1,0-0.1l0,0&#xA;&#9;&#9;c-2.4-0.9-4.8-1.9-7-2.9c-2.3,1.7-4.6,3.3-6.6,4.7c-4.7,3.3-9.9,2.9-13.9-1.1c-2.6-2.5-5.3-5.2-8-8c-3.8-3.6-4.3-9.5-1.2-13.7&#xA;&#9;&#9;c1.5-2.1,3-4.2,4.8-6.7c-1.2-2.8-2.2-5-3-7.2l-2-0.3c-2.5-0.4-5-0.8-7.5-1.4c-4.3-1-7.5-4.8-7.6-9.2c-0.1-4.7-0.1-9.1,0-13.4&#xA;&#9;&#9;c0.1-4.8,3.9-8.8,9-9.6c2.5-0.4,5.2-0.8,7.8-1.3c1-2.4,2-4.8,2.9-7.2c-0.8-1.2-1.7-2.4-2.5-3.6l-2.2-3.2c-3.1-4.5-2.9-9.4,0.7-13.3&#xA;&#9;&#9;c2.9-3.1,5.9-6.1,9.4-9.3c3.4-3,8.4-3.4,12.1-0.8c2.5,1.6,4.9,3.4,7.2,5.1l0.1,0.1c2.6-1.2,5-2.2,7.2-3.1l0.3-1.6&#xA;&#9;&#9;c0.4-2.5,0.8-5.1,1.4-7.6c1-4.5,5-7.8,9.6-7.8c4.3-0.1,8.6-0.1,12.8,0c5,0.2,9.1,3.8,9.9,8.8c0.5,2.7,0.9,5.4,1.4,8.1&#xA;&#9;&#9;c2.5,1,5.1,2,7.6,3.1c2.1-1.5,4.2-3.1,6.6-4.7c4.3-3.2,10.4-2.7,14,1.3l2.2,2.2c2.1,2.1,4.4,4.3,6.5,6.6c3,3.3,3.3,8.3,0.9,12&#xA;&#9;&#9;c-1.5,2.3-3.1,4.5-4.7,6.7l-0.6,0.8c1.2,2.8,2.1,5,2.9,7.1c0,0.1,0,0.1,0.1,0.2h0.1c3.2,0.5,6.1,1,9.1,1.6c4.4,1,7.6,4.8,7.7,9.3&#xA;&#9;&#9;l0,0c0.1,4.6,0.1,8.9,0,13.1c-0.2,5-3.9,9.1-8.9,9.8c-3,0.5-5.7,1-8.2,1.3c-0.9,2.4-1.9,4.7-3,7.3c1.5,2.1,3.1,4.3,4.7,6.5&#xA;&#9;&#9;c3.3,4.8,2.9,10.1-1.3,14.2l-1.5,1.6c-2.3,2.3-4.6,4.6-7,6.9c-1.7,1.6-3.9,2.5-6.2,2.5c-2.4,0.1-4.8-0.6-6.8-2l-2.8-2&#xA;&#9;&#9;c-1.3-0.9-2.6-1.9-3.9-2.8c-2.8,1.2-5.1,2.2-7.3,3l0,0l-0.2,1.5c-0.4,2.5-0.8,5.1-1.4,7.7c-1,4.4-4.8,7.6-9.3,7.8&#xA;&#9;&#9;C330.5,275.6,328.2,275.7,326,275.7z M301.4,251.6c0.5,0,1,0.1,1.5,0.4c2.1,0.9,4.6,2,7,2.9c1.4,0.5,2.4,1.7,2.6,3.2&#xA;&#9;&#9;c0.4,2.7,0.9,5.4,1.3,8.1c0.4,2.9,2.7,5.2,5.7,5.5c4.2,0.1,8.5,0.1,13.2,0c2.7-0.2,4.9-2,5.5-4.6c0.5-2.5,0.9-5,1.3-7.5l0.2-1.5&#xA;&#9;&#9;c0.2-1.4,1.2-2.7,2.5-3.1c2.2-0.8,4.5-1.8,7.3-3c1.2-0.6,2.6-0.4,3.6,0.4c1.4,1,2.7,2,4.1,2.9l2.8,2c1.3,0.9,2.8,1.4,4.3,1.3&#xA;&#9;&#9;c1.3,0,2.6-0.5,3.6-1.5c2.4-2.2,4.7-4.6,6.9-6.8l1.6-1.6c2.8-2.8,3-5.9,0.8-9.1c-1.6-2.3-3.2-4.5-4.8-6.7c-0.8-1-1-2.4-0.4-3.6&#xA;&#9;&#9;c1.2-2.6,2.2-5.1,3.1-7.4c0.4-1.3,1.6-2.3,3-2.4c2.5-0.4,5.1-0.8,8.2-1.3c3-0.4,5.4-2.9,5.5-5.9c0.1-4.1,0.1-8.3,0-12.9l0,0&#xA;&#9;&#9;c-0.1-2.7-2-4.9-4.6-5.5c-2.8-0.6-5.7-1.1-8.9-1.6c-1.6-0.2-2.9-1.3-3.4-2.8c-0.8-2.1-1.7-4.3-2.9-7c-0.6-1.2-0.5-2.7,0.4-3.8&#xA;&#9;&#9;l0.7-1c1.5-2.1,3.1-4.3,4.5-6.5c1.5-2.2,1.3-5.2-0.5-7.2c-2-2.2-4.2-4.4-6.3-6.5l-2.2-2.2c-2.3-2.6-6.2-3-8.9-0.8&#xA;&#9;&#9;c-2.5,1.7-4.6,3.2-6.7,4.7c-1.1,0.9-2.5,1-3.8,0.4c-2.5-1.1-5.1-2.2-7.6-3.1c-1.3-0.4-2.3-1.6-2.4-3c-0.4-2.7-0.9-5.5-1.4-8.2&#xA;&#9;&#9;c-0.4-3-2.9-5.4-6-5.5c-4.1-0.1-8.3-0.1-12.6,0c-2.8,0-5.2,2-5.8,4.7c-0.5,2.4-1,5-1.4,7.4l-0.3,1.8c-0.2,1.4-1.1,2.5-2.4,2.9&#xA;&#9;&#9;c-2.2,0.9-4.6,1.9-7.3,3.1c-1.2,0.6-2.6,0.5-3.7-0.4l-0.3-0.2c-2.3-1.7-4.6-3.4-7-5c-2.2-1.5-5.2-1.4-7.2,0.4&#xA;&#9;&#9;c-3.4,3.1-6.4,6.1-9.2,9.1c-2.3,2.4-2.4,5.4-0.4,8.3c0.7,1.1,1.5,2.1,2.2,3.1c0.9,1.3,1.9,2.6,2.8,4c0.6,0.9,0.7,2.1,0.4,3.1&#xA;&#9;&#9;c-1,2.7-2.1,5.4-3.2,8c-0.5,1-1.4,1.8-2.5,2c-2.8,0.5-5.6,1-8.3,1.4c-3.2,0.5-5.6,2.9-5.7,5.8c-0.1,4.2-0.1,8.5,0,13.1&#xA;&#9;&#9;c0.1,2.6,2,4.8,4.5,5.5c2.4,0.5,4.9,1,7.3,1.4c0.7,0.1,1.4,0.2,2.1,0.4c1.3,0.2,2.4,1.1,2.9,2.3c0.9,2.2,1.9,4.6,3.1,7.4&#xA;&#9;&#9;c0.6,1.2,0.5,2.6-0.4,3.6c-1.9,2.5-3.4,4.6-4.9,6.8c-2.1,2.6-1.7,6.4,0.7,8.6c2.7,2.8,5.4,5.5,8,8s5.8,2.8,8.9,0.7&#xA;&#9;&#9;c2.1-1.5,4.5-3.2,6.8-4.9C300.1,251.9,300.8,251.6,301.4,251.6L301.4,251.6z M273.6,188.5L273.6,188.5z"/>
</g>
<g id="device_phone-maintenance-21">
	<path class="st3_phone-maintenance-21 targetColor" d="M156.9,96.4h143c12.9,0,23.4,10.5,23.4,23.4v260.5c0,12.9-10.5,23.4-23.4,23.4h-143&#xA;&#9;&#9;c-12.9,0-23.4-10.5-23.4-23.4V119.8C133.5,106.9,144,96.4,156.9,96.4z" style="fill: rgb(104, 225, 253);"/>
	<path class="st1_phone-maintenance-21" d="M295.9,405.4h-135c-16.1,0-29.2-13.1-29.2-29.2V123.8c0-16.1,13.1-29.2,29.2-29.2h135&#xA;&#9;&#9;c16.1,0,29.2,13.1,29.2,29.2v252.4C325.1,392.3,312,405.4,295.9,405.4z M160.9,98.2c-14.1,0-25.6,11.5-25.6,25.6v252.4&#xA;&#9;&#9;c0,14.1,11.5,25.6,25.6,25.6h135c14.1,0,25.6-11.5,25.6-25.6V123.8c0-14.1-11.5-25.6-25.6-25.6H160.9z"/>
	<rect x="133.5" y="131.9" class="st4_phone-maintenance-21" width="189.8" height="219.6"/>
	<path class="st1_phone-maintenance-21" d="M323.3,353.2H133.5c-1,0-1.8-0.8-1.8-1.8c0,0,0,0,0,0V131.9c0-1,0.8-1.8,1.8-1.8c0,0,0,0,0,0h189.8&#xA;&#9;&#9;c1,0,1.8,0.8,1.8,1.8c0,0,0,0,0,0v219.6C325.1,352.4,324.3,353.2,323.3,353.2C323.3,353.2,323.3,353.2,323.3,353.2z M135.3,349.6&#xA;&#9;&#9;h186.2V133.7H135.3L135.3,349.6z"/>
	<circle class="st1_phone-maintenance-21" cx="228.4" cy="377.8" r="11.5"/>
	<path class="st1_phone-maintenance-21" d="M234.5,118.8h-23.4c-1,0.1-1.9-0.7-1.9-1.7s0.7-1.9,1.7-1.9c0.1,0,0.2,0,0.3,0h23.4c1-0.1,1.9,0.7,1.9,1.7&#xA;&#9;&#9;s-0.7,1.9-1.7,1.9C234.7,118.8,234.6,118.8,234.5,118.8L234.5,118.8z"/>
	<path class="st1_phone-maintenance-21" d="M245.7,118.8h-4.3c-1,0.1-1.9-0.7-1.9-1.7s0.7-1.9,1.7-1.9c0.1,0,0.2,0,0.3,0h4.3c1-0.1,1.9,0.7,1.9,1.7&#xA;&#9;&#9;s-0.7,1.9-1.7,1.9C245.8,118.8,245.8,118.8,245.7,118.8z"/>
	<path class="st5_phone-maintenance-21" d="M211.2,154.7h-51c-1,0.1-1.9-0.7-1.9-1.7s0.7-1.9,1.7-1.9c0.1,0,0.2,0,0.3,0h51c1-0.1,1.9,0.7,1.9,1.7&#xA;&#9;&#9;s-0.7,1.9-1.7,1.9C211.3,154.7,211.2,154.7,211.2,154.7z"/>
	<path class="st5_phone-maintenance-21" d="M241.4,154.7h-12.9c-1,0.1-1.9-0.7-1.9-1.7s0.7-1.9,1.7-1.9c0.1,0,0.2,0,0.3,0h12.9c1-0.1,1.9,0.7,1.9,1.7&#xA;&#9;&#9;s-0.7,1.9-1.7,1.9C241.5,154.7,241.4,154.7,241.4,154.7z"/>
</g>
<g id="tools_phone-maintenance-21">
	<g id="tools-2_phone-maintenance-21">
		<path class="st1_phone-maintenance-21" d="M241.4,206.9c0,13.5-6.7,26.1-17.9,33.7v110.8h-45.4V240.6c-18.6-12.5-23.5-37.8-11-56.4&#xA;&#9;&#9;&#9;c4.1-6.1,9.9-11,16.6-14.1v30l17.1,11.5l17.1-11.5v-30C232.2,176.8,241.4,191.1,241.4,206.9z"/>
		<path class="st1_phone-maintenance-21" d="M223.4,353.2h-45.4c-1,0-1.8-0.8-1.8-1.8c0,0,0,0,0,0V241.5c-19.1-13.5-23.7-40-10.1-59.1&#xA;&#9;&#9;&#9;c4.3-6,10.1-10.9,16.8-14c0.9-0.4,2,0,2.4,0.9c0.1,0.2,0.2,0.5,0.2,0.8v29l15.3,10.3l15.2-10.2v-29c0-1,0.8-1.8,1.8-1.8&#xA;&#9;&#9;&#9;c0.3,0,0.5,0.1,0.8,0.2c21.2,9.9,30.5,35.1,20.6,56.3c-3.1,6.7-7.9,12.5-14,16.8v109.8C225.2,352.4,224.4,353.2,223.4,353.2z&#xA;&#9;&#9;&#9; M179.9,349.6h41.7v-109c0-0.6,0.3-1.2,0.8-1.5c17.8-12,22.4-36.1,10.5-53.8c-3.4-5-7.9-9.2-13.2-12.2v27c0,0.6-0.3,1.2-0.8,1.5&#xA;&#9;&#9;&#9;l-17.1,11.5c-0.6,0.4-1.4,0.4-2,0l-17.1-11.5c-0.5-0.3-0.8-0.9-0.8-1.5v-27c-18.7,10.5-25.4,34.1-14.9,52.8&#xA;&#9;&#9;&#9;c3,5.3,7.1,9.8,12.2,13.2c0.5,0.3,0.8,0.9,0.8,1.5V349.6z"/>
		<rect x="272.1" y="210.6" class="st3_phone-maintenance-21 targetColor" width="13.5" height="114.4" style="fill: rgb(104, 225, 253);"/>
		<path class="st1_phone-maintenance-21" d="M285.6,326.9h-13.5c-1,0-1.8-0.8-1.8-1.8c0,0,0,0,0,0V210.6c0-1,0.8-1.8,1.8-1.8c0,0,0,0,0,0h13.5&#xA;&#9;&#9;&#9;c1,0,1.8,0.8,1.8,1.8v114.5C287.4,326.1,286.6,326.9,285.6,326.9C285.6,326.9,285.6,326.9,285.6,326.9z M273.9,323.3h9.9V212.5&#xA;&#9;&#9;&#9;h-9.9V323.3z"/>
		<polygon class="st3_phone-maintenance-21 targetColor" points="272.1,210.6 285.6,210.6 290.8,196.5 266.9,196.5 &#9;&#9;" style="fill: rgb(104, 225, 253);"/>
		<path class="st1_phone-maintenance-21" d="M285.6,212.5h-13.5c-0.8,0-1.4-0.5-1.7-1.2l-5.2-14.2c-0.2-0.6-0.1-1.2,0.2-1.7c0.3-0.5,0.9-0.8,1.5-0.8h24&#xA;&#9;&#9;&#9;c0.6,0,1.2,0.3,1.5,0.8c0.3,0.5,0.4,1.1,0.2,1.7l-5.2,14.2C287.1,212,286.4,212.5,285.6,212.5z M273.3,208.8h11l3.9-10.6h-18.7&#xA;&#9;&#9;&#9;L273.3,208.8z"/>
		<polygon class="st3_phone-maintenance-21 targetColor" points="272.1,174.9 285.6,174.9 290.8,196.5 266.9,196.5 &#9;&#9;" style="fill: rgb(104, 225, 253);"/>
		<path class="st1_phone-maintenance-21" d="M290.8,198.3h-24c-1,0-1.8-0.8-1.8-1.8c0-0.1,0-0.3,0.1-0.4l5.2-21.6c0.2-0.8,0.9-1.4,1.8-1.4h13.5&#xA;&#9;&#9;&#9;c0.8,0,1.6,0.6,1.8,1.4l5.2,21.5c0.1,0.5,0,1.1-0.3,1.6C291.9,198,291.4,198.3,290.8,198.3z M269.2,194.6h19.3l-4.3-17.9h-10.7&#xA;&#9;&#9;&#9;L269.2,194.6z"/>
	</g>
	<polygon class="st1_phone-maintenance-21" points="267.1,310.3 290.6,310.3 294.2,351.4 263.5,351.4 &#9;"/>
	<path class="st1_phone-maintenance-21" d="M294.2,353.2h-30.7c-0.5,0-1-0.2-1.3-0.6c-0.3-0.4-0.5-0.9-0.5-1.4l3.6-41.1c0.1-0.9,0.9-1.7,1.8-1.7h23.5&#xA;&#9;&#9;c0.9,0,1.7,0.7,1.8,1.7l3.6,41.1c0,0.5-0.1,1-0.5,1.4C295.2,353,294.7,353.2,294.2,353.2z M265.5,349.6h26.7l-3.3-37.5h-20.2&#xA;&#9;&#9;L265.5,349.6z"/>
</g>
<g id="tab_phone-maintenance-21">
	<path class="st4_phone-maintenance-21" d="M206,274.8v52.6c0,3.9-3.1,7-7,7h-84.3c-3.8,0-6.9-3.2-6.9-7v-52.6c0-3.8,3.1-6.9,6.9-6.9c0,0,0,0,0,0h84.3&#xA;&#9;&#9;C202.9,267.9,206,271,206,274.8z"/>
	<path class="st1_phone-maintenance-21" d="M199.1,336.2h-84.3c-4.8,0-8.8-3.9-8.8-8.8v-52.6c0-4.8,3.9-8.8,8.8-8.8h84.3c4.8,0,8.8,3.9,8.8,8.8v52.6&#xA;&#9;&#9;C207.8,332.2,203.9,336.2,199.1,336.2z M114.7,269.7c-2.8,0-5.1,2.3-5.1,5.1v52.6c0,2.8,2.3,5.1,5.1,5.1c0,0,0,0,0,0h84.3&#xA;&#9;&#9;c2.8,0,5.1-2.3,5.1-5.1l0,0v-52.6c0-2.8-2.3-5.1-5.1-5.1h0H114.7z"/>
	<path class="st6_phone-maintenance-21" d="M206,274.8v6h-98.2v-6c0-3.8,3.1-6.9,6.9-6.9c0,0,0,0,0,0h84.3C202.9,267.9,206,271,206,274.8z"/>
	<path class="st1_phone-maintenance-21" d="M206,282.6h-98.2c-1,0-1.8-0.8-1.8-1.8v-6c0-4.8,3.9-8.8,8.8-8.8h84.3c4.8,0,8.8,3.9,8.8,8.8v6&#xA;&#9;&#9;C207.8,281.8,207,282.7,206,282.6C206,282.7,206,282.7,206,282.6z M109.6,279h94.6v-4.2c0-2.8-2.3-5.1-5.1-5.1h0h-84.3&#xA;&#9;&#9;c-2.8,0-5.1,2.3-5.1,5.1L109.6,279z"/>
	<path class="st5_phone-maintenance-21" d="M158.1,325.1c-0.7,0-1.4-0.4-1.7-1.1l-13.2-30.5l-9.4,15.9c-0.3,0.5-0.9,0.9-1.6,0.9h-10.6&#xA;&#9;&#9;c-1-0.1-1.8-0.9-1.7-1.9c0.1-0.9,0.8-1.6,1.7-1.7h9.5l10.7-18c0.4-0.6,1-0.9,1.7-0.9c0.7,0,1.3,0.5,1.6,1.1l12.9,29.6l9.7-25.1&#xA;&#9;&#9;c0.2-0.6,0.8-1.1,1.4-1.1c0.7-0.1,1.3,0.2,1.7,0.7l8.7,11.7h12.7c1,0.1,1.8,0.9,1.7,1.9c-0.1,0.9-0.8,1.6-1.7,1.7h-13.6&#xA;&#9;&#9;c-0.6,0-1.1-0.3-1.5-0.7l-7.2-9.8l-10.1,26.2C159.5,324.6,158.9,325.1,158.1,325.1L158.1,325.1z"/>
</g>
</svg>